<svg width="98" height="98" viewBox="0 0 98 98" fill="none" xmlns="http://www.w3.org/2000/svg">
<path d="M86.694 79.473C93.445 71.138 97.5 60.536 97.5 49C97.5 41.535 95.802 34.46 92.775 28.137C92.759 28.104 92.751 28.069 92.73 28.038C87.159 16.461 77.118 7.433 64.864 3.178C64.832 3.166 64.801 3.155 64.769 3.146C59.821 1.44 54.52 0.5 49 0.5C36.953 0.5 25.927 4.925 17.437 12.222C17.319 12.287 17.217 12.377 17.133 12.485C6.951 21.382 0.5 34.448 0.5 49C0.5 49.015 0.501 49.03 0.501 49.044C0.501 49.045 0.501 49.046 0.501 49.047C0.518 65.92 9.198 80.795 22.32 89.474C22.421 89.569 22.534 89.649 22.665 89.696C30.254 94.624 39.295 97.5 49 97.5C54.502 97.5 59.786 96.566 64.72 94.871C64.778 94.857 64.831 94.837 64.886 94.814C73.407 91.851 80.858 86.585 86.477 79.75C86.485 79.743 86.497 79.741 86.504 79.733C86.587 79.657 86.644 79.565 86.694 79.473ZM72.704 68.391C73.311 64.968 73.83 61.301 74.191 57.448C81.511 56.145 88.718 53.973 95.458 50.639C95.106 60.718 91.536 69.988 85.739 77.454C81.18 72.676 76.852 69.818 72.704 68.391ZM91.686 30.576C94.059 36.054 95.404 42.073 95.485 48.393C88.823 51.821 81.66 54.051 74.367 55.396C74.621 52.129 74.758 48.745 74.735 45.27C80.42 43.174 86.012 38.321 91.686 30.576ZM90.722 28.496C85.282 36.131 79.997 40.966 74.701 43.137C74.4 31.209 72.179 18.354 66.472 5.918C77.049 10.224 85.695 18.31 90.722 28.496ZM63.786 4.924C70.121 17.872 72.478 31.376 72.723 43.828C71.772 44.099 70.82 44.292 69.866 44.393C59.772 45.466 50.753 37.104 41.209 28.255C34.432 21.971 27.438 15.496 19.96 12.722C27.923 6.334 38.02 2.5 49 2.5C54.169 2.5 59.138 3.36 63.786 4.924ZM18.172 14.229C25.671 16.591 32.876 23.257 39.848 29.722C48.745 37.971 57.927 46.483 68.15 46.483C68.788 46.483 69.43 46.45 70.076 46.382C70.969 46.288 71.857 46.121 72.744 45.895C72.748 49.276 72.603 52.57 72.344 55.746C40.842 60.843 7.61 50.051 2.518 48.298C2.72 34.759 8.731 22.609 18.172 14.229ZM2.536 50.415C8.145 52.294 30.145 59.09 54.592 59.09C60.374 59.09 66.292 58.7 72.162 57.783C71.816 61.309 71.338 64.671 70.783 67.826C60.084 65.211 50.552 71.709 41.237 78.066C35.102 82.254 29.299 86.207 23.209 87.67C11.101 79.567 3.003 65.936 2.536 50.415ZM25.508 89.104C31.312 87.258 36.921 83.433 42.365 79.718C51.603 73.412 60.491 67.353 70.415 69.827C68.031 82.29 64.569 91.117 63.759 93.084C59.118 94.643 54.159 95.5 49 95.5C40.434 95.5 32.407 93.162 25.508 89.104ZM66.271 92.16C67.633 88.578 70.341 80.736 72.331 70.411C76.185 71.791 80.208 74.51 84.472 79.019C79.603 84.765 73.367 89.311 66.271 92.16Z" fill="black"/>
</svg>
